<svg xmlns="http://www.w3.org/2000/svg" version="1.1" xmlns:xlink="http://www.w3.org/1999/xlink" xmlns:svgjs="http://svgjs.com/svgjs" width="512" height="512" x="0" y="0" viewBox="0 0 484.665 484.665" style="enable-background:new 0 0 512 512" xml:space="preserve" class=""><g><path d="M392.771 39.249H368.31V20.778C368.31 9.305 359.007 0 347.531 0h-7.552c-11.477 0-20.778 9.306-20.778 20.778v18.471H173.846V20.778C173.846 9.305 164.543 0 153.067 0h-7.552c-11.476 0-20.777 9.306-20.777 20.778v18.471H91.893c-30.932 0-56.096 25.165-56.096 56.097v333.222c0 30.932 25.164 56.097 56.096 56.097h300.879c30.932 0 56.096-25.165 56.096-56.097V95.346c-.001-30.932-25.165-56.097-56.097-56.097zm22.315 389.318c0 12.304-10.011 22.314-22.313 22.314H91.893c-12.304 0-22.314-10.012-22.314-22.314V95.346c0-12.305 10.011-22.315 22.314-22.315h32.845v26.537c0 11.474 9.302 20.779 20.777 20.779h7.552c11.477 0 20.779-9.306 20.779-20.779V73.03h145.355v26.537c0 11.474 9.303 20.779 20.777 20.779h7.553c11.477 0 20.778-9.306 20.778-20.779V73.03h24.462c12.304 0 22.313 10.011 22.313 22.315l.002 333.222z" fill="#f4f4f4" data-original="#000000" class=""></path><path d="M356.665 166.197h-222c-9.328 0-16.891 7.562-16.891 16.891s7.563 16.891 16.891 16.891h222c9.328 0 16.891-7.563 16.891-16.891s-7.563-16.891-16.891-16.891zM355.476 233.197h-222c-9.328 0-16.891 7.562-16.891 16.891s7.563 16.891 16.891 16.891h222c9.328 0 16.892-7.562 16.892-16.891s-7.564-16.891-16.892-16.891zM354.286 300.197h-222c-9.328 0-16.891 7.562-16.891 16.891s7.563 16.891 16.891 16.891h222c9.328 0 16.891-7.562 16.891-16.891s-7.563-16.891-16.891-16.891zM353.097 367.197h-222c-9.328 0-16.891 7.562-16.891 16.891s7.563 16.891 16.891 16.891h222c9.328 0 16.892-7.562 16.892-16.891s-7.564-16.891-16.892-16.891z" fill="#f4f4f4" data-original="#000000" class=""></path></g></svg>