<svg width="41" height="42" viewBox="0 0 41 42" fill="none" xmlns="http://www.w3.org/2000/svg">
<path d="M29.4122 21.1173C29.4122 22.9319 30.6082 24.3866 32.3036 24.3866C33.9688 24.3866 35.1798 22.9631 35.1798 21.1173C35.1798 19.2715 33.9688 17.8481 32.3036 17.8481C30.6082 17.8481 29.4122 19.3028 29.4122 21.1173Z" fill="#F3F3F3"/>
<path fill-rule="evenodd" clip-rule="evenodd" d="M20.3604 0H0V20.9609C0 32.5805 9.11568 42 20.3604 42H40.6452V20.9609C40.6452 9.38452 31.5634 0 20.3604 0ZM5.61616 26.6704H3.1638V15.5642H5.69185V22.4469H5.72212L9.80934 15.5642H12.2011V26.6704H9.67308V19.9598L9.64281 19.9441L5.61616 26.6704ZM16.6457 26.6704H14.148V15.5642H16.6912L19.6733 21.4614H19.7036L22.6555 15.5642H25.2138V26.6704H22.7009V20.5542H22.6706L20.4907 24.6212H18.871L16.6912 20.5386H16.6457V26.6704ZM37.8289 21.1173C37.8289 24.5117 35.5128 26.8112 32.3036 26.8112C29.0338 26.8112 26.7631 24.4648 26.7631 21.1173C26.7631 17.7698 29.0338 15.4078 32.3036 15.4078C35.5128 15.4078 37.8289 17.7073 37.8289 21.1173Z" fill="#F3F3F3"/>
</svg>
