<svg width="25" height="22" viewBox="0 0 25 22" fill="none" xmlns="http://www.w3.org/2000/svg">
<path d="M1.37821 2.53846C1.37821 1.13651 2.44522 0 3.76145 0H8.15286C9.67459 0 10.9505 0.947625 11.8254 2.00365C12.4766 2.78958 13.2606 3.38462 14.0888 3.38462H21.2397C22.5566 3.38462 23.6218 4.52189 23.6218 5.92308V7.00502C24.5267 7.45405 25.1143 8.48878 24.9812 9.62255L23.9636 18.294C23.7151 20.4112 22.0254 22 20.0222 22H4.9778C2.97459 22 1.28487 20.4112 1.03641 18.294L0.0187548 9.62255C-0.1143 8.48878 0.473301 7.45405 1.37821 7.00502V2.53846ZM2.96704 6.76923H22.033V5.92308C22.033 5.45499 21.6777 5.07692 21.2397 5.07692H14.0888C12.5574 5.07692 11.3711 4.01292 10.6341 3.12341C9.91626 2.25698 9.03835 1.69231 8.15286 1.69231H3.76145C3.32271 1.69231 2.96704 2.07114 2.96704 2.53846V6.76923ZM2.38359 8.46154C1.90575 8.46154 1.53604 8.90761 1.59531 9.41265L2.61296 18.0841C2.76204 19.3544 3.77588 20.3077 4.9778 20.3077H20.0222C21.2241 20.3077 22.238 19.3544 22.387 18.0841L23.4047 9.41264C23.464 8.90762 23.0942 8.46154 22.6164 8.46154H2.38359Z" fill="#F3F3F3"/>
</svg>
