<svg width="24" height="23" viewBox="0 0 24 23" fill="none" xmlns="http://www.w3.org/2000/svg">
<path fill-rule="evenodd" clip-rule="evenodd" d="M13.9526 22.2297C13.769 22.6433 13.3591 22.9099 12.9069 22.9099C10.5686 22.9099 8.6729 21.0124 8.6729 18.6716V15.6933H3.64366C2.70626 15.7019 1.81193 15.299 1.19668 14.5907C0.579853 13.8806 0.305611 12.9352 0.446682 12.0048L1.86792 2.72645C2.10715 1.14756 3.47016 -0.014349 5.06476 0.0001297L19.7672 0.000360489C21.5493 -0.0256405 23.0709 1.28506 23.31 3.05418C23.3169 3.10508 23.3203 3.15637 23.3203 3.20773V10.4243C23.3203 10.4757 23.3169 10.527 23.31 10.5779C23.0812 12.2707 21.6228 13.7726 19.7672 13.7459H17.7194L13.9526 22.2297ZM15.8822 12.2429L12.2189 20.4936C11.4841 20.2154 10.9616 19.5046 10.9616 18.6716V14.5478C10.9616 13.9152 10.4492 13.4024 9.81723 13.4024H3.63785L3.62485 13.4024C3.35633 13.4055 3.09996 13.2903 2.92376 13.0875C2.74746 12.8845 2.66912 12.6144 2.70943 12.3486L4.13042 3.07183L4.1307 3.06999C4.19917 2.61815 4.58972 2.28587 5.04617 2.29103L15.8822 2.29111V12.2429ZM18.1708 2.2912L19.7762 2.29134L19.7966 2.29116C20.4011 2.28045 20.9209 2.70872 21.0317 3.29734V10.3357C20.9102 10.9992 20.3314 11.4646 19.7966 11.4551L19.7763 11.4549H18.1708V2.2912Z" fill="#383838"/>
</svg>
