<svg width="24" height="23" viewBox="0 0 24 23" fill="none" xmlns="http://www.w3.org/2000/svg">
<path fill-rule="evenodd" clip-rule="evenodd" d="M9.8677 0.680262C10.0514 0.266594 10.4612 0 10.9134 0C13.2518 0 15.1474 1.89755 15.1474 4.23831V7.21658H20.1767C21.1141 7.20802 22.0084 7.61093 22.6236 8.31922C23.2405 9.02932 23.5147 9.9747 23.3736 10.9051L21.9524 20.1835C21.7132 21.7624 20.3502 22.9243 18.7555 22.9098L4.05308 22.9096C2.27103 22.9356 0.749382 21.6248 0.510327 19.8557C0.50345 19.8048 0.5 19.7535 0.5 19.7022V12.4856C0.5 12.4342 0.50345 12.3829 0.510327 12.3321C0.739069 10.6393 2.19747 9.13727 4.05307 9.16403H6.10095L9.8677 0.680262ZM7.93814 10.667L11.6014 2.41628C12.3363 2.69448 12.8588 3.40532 12.8588 4.23831V8.36207C12.8588 8.99471 13.3711 9.50756 14.0031 9.50756H20.1825L20.1955 9.50749C20.464 9.50443 20.7204 9.61961 20.8966 9.82246C21.0729 10.0254 21.1512 10.2955 21.1109 10.5613L19.6899 19.8381L19.6896 19.8399C19.6211 20.2918 19.2306 20.624 18.7741 20.6189L7.93814 20.6188V10.667ZM5.64948 20.6187L4.04408 20.6186L4.02375 20.6188C3.41925 20.6295 2.89945 20.2012 2.78866 19.6126V12.5742C2.9101 11.9107 3.48893 11.4454 4.02375 11.4548L4.04399 11.455H5.64948V20.6187Z" fill="#383838"/>
</svg>
