<svg width="27" height="31" viewBox="0 0 27 31" fill="none" xmlns="http://www.w3.org/2000/svg">
<path d="M17.5741 1.95901L17.1316 1.5H16.4941H6.55387C4.96733 1.5 3.6848 2.79294 3.69762 4.37942L3.87763 26.6667C3.8903 28.2352 5.16537 29.5 6.73388 29.5H21.6141C23.1794 29.5 24.453 28.2403 24.4703 26.6752L24.6552 9.92713L24.662 9.31228L24.2352 8.86958L17.5741 1.95901Z" stroke="#FF1F1F" stroke-width="3"/>
<path d="M15.1593 11.2029H1.34293C0.877392 11.2029 0.5 11.5803 0.5 12.0458V20.0028C0.5 20.7519 1.10726 21.3591 1.85635 21.3591H8.50781H15.1593C15.9084 21.3591 16.5156 20.7519 16.5156 20.0028V12.5592C16.5156 11.8101 15.9084 11.2029 15.1593 11.2029Z" fill="#FF1F1F"/>
<path d="M3.6835 17.0803V18.548H2.8252V14.3823H4.45026C4.76306 14.3823 5.03772 14.4395 5.27423 14.554C5.51265 14.6684 5.69576 14.8315 5.82355 15.0432C5.95134 15.253 6.01524 15.4924 6.01524 15.7613C6.01524 16.1695 5.87505 16.4919 5.59467 16.7284C5.31619 16.963 4.92996 17.0803 4.43595 17.0803H3.6835ZM3.6835 16.385H4.45026C4.67723 16.385 4.84985 16.3316 4.9681 16.2248C5.08827 16.118 5.14835 15.9654 5.14835 15.7671C5.14835 15.563 5.08827 15.398 4.9681 15.2721C4.84794 15.1462 4.682 15.0814 4.47028 15.0776H3.6835V16.385Z" fill="white"/>
<path d="M6.87114 18.548V14.3823H8.15288C8.51909 14.3823 8.8462 14.4653 9.13421 14.6312C9.42413 14.7953 9.65015 15.0299 9.81227 15.335C9.9744 15.6383 10.0555 15.9835 10.0555 16.3707V16.5624C10.0555 16.9496 9.97535 17.2939 9.81513 17.5953C9.65682 17.8966 9.43271 18.1303 9.14279 18.2962C8.85288 18.4621 8.52577 18.5461 8.16146 18.548H6.87114ZM7.72945 15.0776V17.8585H8.1443C8.47999 17.8585 8.73653 17.7488 8.91391 17.5295C9.0913 17.3101 9.18189 16.9963 9.18571 16.5882V16.3679C9.18571 15.9444 9.09797 15.624 8.92249 15.4066C8.74702 15.1872 8.49048 15.0776 8.15288 15.0776H7.72945Z" fill="white"/>
<path d="M13.452 16.8457H11.804V18.548H10.9457V14.3823H13.6579V15.0776H11.804V16.1533H13.452V16.8457Z" fill="white"/>
<path d="M3.6835 17.0803V18.548H2.8252V14.3823H4.45026C4.76306 14.3823 5.03772 14.4395 5.27423 14.554C5.51265 14.6684 5.69576 14.8315 5.82355 15.0432C5.95134 15.253 6.01524 15.4924 6.01524 15.7613C6.01524 16.1695 5.87505 16.4919 5.59467 16.7284C5.31619 16.963 4.92996 17.0803 4.43595 17.0803H3.6835ZM3.6835 16.385H4.45026C4.67723 16.385 4.84985 16.3316 4.9681 16.2248C5.08827 16.118 5.14835 15.9654 5.14835 15.7671C5.14835 15.563 5.08827 15.398 4.9681 15.2721C4.84794 15.1462 4.682 15.0814 4.47028 15.0776H3.6835V16.385Z" stroke="white" stroke-width="0.196668"/>
<path d="M6.87114 18.548V14.3823H8.15288C8.51909 14.3823 8.8462 14.4653 9.13421 14.6312C9.42413 14.7953 9.65015 15.0299 9.81227 15.335C9.9744 15.6383 10.0555 15.9835 10.0555 16.3707V16.5624C10.0555 16.9496 9.97535 17.2939 9.81513 17.5953C9.65682 17.8966 9.43271 18.1303 9.14279 18.2962C8.85288 18.4621 8.52577 18.5461 8.16146 18.548H6.87114ZM7.72945 15.0776V17.8585H8.1443C8.47999 17.8585 8.73653 17.7488 8.91391 17.5295C9.0913 17.3101 9.18189 16.9963 9.18571 16.5882V16.3679C9.18571 15.9444 9.09797 15.624 8.92249 15.4066C8.74702 15.1872 8.49048 15.0776 8.15288 15.0776H7.72945Z" stroke="white" stroke-width="0.196668"/>
<path d="M13.452 16.8457H11.804V18.548H10.9457V14.3823H13.6579V15.0776H11.804V16.1533H13.452V16.8457Z" stroke="white" stroke-width="0.196668"/>
</svg>
