<svg width="22" height="22" viewBox="0 0 22 22" fill="none" xmlns="http://www.w3.org/2000/svg">
<path d="M0 1.73718C0 1.16879 0.393346 0.708008 0.878564 0.708008H20.207C20.6922 0.708008 21.0855 1.16879 21.0855 1.73718C21.0855 2.30558 20.6922 2.76636 20.207 2.76636H0.878564C0.393346 2.76636 0 2.30558 0 1.73718ZM1.13589 6.15532C1.47899 5.7534 2.03527 5.7534 2.37837 6.15532L5.89262 10.272C6.23572 10.6739 6.23572 11.3256 5.89262 11.7275L2.37837 15.8442C2.03527 16.2461 1.47899 16.2461 1.13589 15.8442C0.792789 15.4423 0.792789 14.7906 1.13589 14.3887L4.02891 10.9998L1.13589 7.61079C0.792789 7.20888 0.792789 6.55724 1.13589 6.15532ZM8.78564 7.91223C8.78564 7.34383 9.17898 6.88306 9.6642 6.88306H20.207C20.6922 6.88306 21.0855 7.34383 21.0855 7.91223C21.0855 8.48063 20.6922 8.94141 20.207 8.94141H9.6642C9.17898 8.94141 8.78564 8.48063 8.78564 7.91223ZM8.78564 14.0873C8.78564 13.5189 9.17898 13.0581 9.6642 13.0581H20.207C20.6922 13.0581 21.0855 13.5189 21.0855 14.0873C21.0855 14.6557 20.6922 15.1165 20.207 15.1165H9.6642C9.17898 15.1165 8.78564 14.6557 8.78564 14.0873ZM0 20.2623C0 19.6939 0.393346 19.2332 0.878564 19.2332H20.207C20.6922 19.2332 21.0855 19.6939 21.0855 20.2623C21.0855 20.8307 20.6922 21.2915 20.207 21.2915H0.878564C0.393346 21.2915 0 20.8307 0 20.2623Z" fill="#F3F3F3"/>
</svg>
