<svg width="22" height="22" viewBox="0 0 22 22" fill="none" xmlns="http://www.w3.org/2000/svg">
<path d="M0 1.73743C0 1.16903 0.393346 0.708252 0.878564 0.708252H20.207C20.6922 0.708252 21.0855 1.16903 21.0855 1.73743C21.0855 2.30582 20.6922 2.7666 20.207 2.7666H0.878564C0.393346 2.7666 0 2.30582 0 1.73743ZM1.13589 6.15556C1.47899 5.75365 2.03527 5.75365 2.37837 6.15556L5.89262 10.2723C6.23572 10.6742 6.23572 11.3258 5.89262 11.7277L2.37837 15.8444C2.03527 16.2464 1.47899 16.2464 1.13589 15.8444C0.792789 15.4425 0.792789 14.7909 1.13589 14.389L4.02891 11L1.13589 7.61104C0.792789 7.20912 0.792789 6.55748 1.13589 6.15556ZM8.78564 7.91248C8.78564 7.34408 9.17898 6.8833 9.6642 6.8833H20.207C20.6922 6.8833 21.0855 7.34408 21.0855 7.91248C21.0855 8.48087 20.6922 8.94165 20.207 8.94165H9.6642C9.17898 8.94165 8.78564 8.48087 8.78564 7.91248ZM8.78564 14.0875C8.78564 13.5191 9.17898 13.0583 9.6642 13.0583H20.207C20.6922 13.0583 21.0855 13.5191 21.0855 14.0875C21.0855 14.6559 20.6922 15.1167 20.207 15.1167H9.6642C9.17898 15.1167 8.78564 14.6559 8.78564 14.0875ZM0 20.2626C0 19.6942 0.393346 19.2334 0.878564 19.2334H20.207C20.6922 19.2334 21.0855 19.6942 21.0855 20.2626C21.0855 20.831 20.6922 21.2917 20.207 21.2917H0.878564C0.393346 21.2917 0 20.831 0 20.2626Z" fill="black"/>
</svg>
