<svg width="22" height="24" viewBox="0 0 22 24" fill="none" xmlns="http://www.w3.org/2000/svg">
<path d="M10.7895 5.67188C10.7895 5.28355 10.4876 4.96875 10.1151 4.96875C9.7427 4.96875 9.44079 5.28355 9.44079 5.67188V13.4063C9.44079 13.6586 9.57046 13.8915 9.78057 14.0167L14.501 16.8292C14.8243 17.0219 15.2362 16.9048 15.421 16.5676C15.6058 16.2304 15.4935 15.8009 15.1701 15.6083L10.7895 12.9982V5.67188Z" fill="black"/>
<path d="M10.7895 23.25C16.7483 23.25 21.5789 18.2132 21.5789 12C21.5789 5.7868 16.7483 0.75 10.7895 0.75C4.83061 0.75 0 5.7868 0 12C0 18.2132 4.83061 23.25 10.7895 23.25ZM20.2303 12C20.2303 17.4366 16.0035 21.8438 10.7895 21.8438C5.57547 21.8438 1.34868 17.4366 1.34868 12C1.34868 6.56345 5.57547 2.15625 10.7895 2.15625C16.0035 2.15625 20.2303 6.56345 20.2303 12Z" fill="black"/>
</svg>
