<svg width="23" height="19" viewBox="0 0 23 19" fill="none" xmlns="http://www.w3.org/2000/svg">
<path fill-rule="evenodd" clip-rule="evenodd" d="M1.98887 8.16237C7.80259 5.62943 11.6793 3.95956 13.6191 3.15276C19.1574 0.849179 20.3082 0.449023 21.0583 0.43581C21.2233 0.432904 21.5921 0.473789 21.8311 0.667671C22.0328 0.831381 22.0883 1.05253 22.1149 1.20775C22.1415 1.36296 22.1745 1.71655 22.1482 1.99283C21.8481 5.14625 20.5495 12.7988 19.8888 16.3307C19.6093 17.8251 19.0588 18.3262 18.5259 18.3753C17.3678 18.4818 16.4884 17.6099 15.3667 16.8746C13.6115 15.724 12.6199 15.0078 10.9161 13.8851C8.94715 12.5875 10.2236 11.8744 11.3457 10.7089C11.6393 10.4039 16.742 5.76264 16.8408 5.3416C16.8531 5.28894 16.8646 5.09266 16.748 4.98902C16.6314 4.88537 16.4593 4.92081 16.3351 4.949C16.159 4.98896 13.355 6.84229 7.92309 10.509C7.12718 11.0555 6.40628 11.3218 5.76037 11.3079C5.04831 11.2925 3.67859 10.9053 2.66035 10.5743C1.41143 10.1683 0.418812 9.95365 0.505247 9.26418C0.550267 8.90506 1.04481 8.53779 1.98887 8.16237Z" fill="#000212"/>
</svg>
