<svg width="29" height="17" viewBox="0 0 29 17" fill="none" xmlns="http://www.w3.org/2000/svg">
<path fill-rule="evenodd" clip-rule="evenodd" d="M4.27118 0.0098877H1.20798C0.332767 0.0098877 0.157715 0.426174 0.157715 0.88508C0.157715 1.70483 1.19622 5.77034 4.99314 11.1473C7.52442 14.8194 11.0907 16.8099 14.336 16.8099C16.2832 16.8099 16.5241 16.3678 16.5241 15.6063V12.8309C16.5241 11.9467 16.7085 11.7702 17.325 11.7702C17.7794 11.7702 18.5583 11.9998 20.3756 13.7702C22.4526 15.8686 22.795 16.8099 23.9632 16.8099H27.0264C27.9017 16.8099 28.3393 16.3678 28.0868 15.4953C27.8106 14.6258 26.8189 13.3641 25.5031 11.8687C24.7891 11.0162 23.7182 10.0982 23.3937 9.63912C22.9394 9.049 23.0691 8.78665 23.3937 8.26214C23.3937 8.26214 27.1257 2.95068 27.5152 1.14751C27.7099 0.491694 27.5152 0.0098877 26.5888 0.0098877H23.5256C22.7468 0.0098877 22.3877 0.426174 22.1929 0.88508C22.1929 0.88508 20.6352 4.72114 18.4285 7.21293C17.7145 7.93418 17.39 8.16372 17.0005 8.16372C16.8058 8.16372 16.524 7.93418 16.524 7.27854V1.14751C16.524 0.360566 16.298 0.0098877 15.6488 0.0098877H10.8352C10.3485 0.0098877 10.0557 0.375066 10.0557 0.721235C10.0557 1.46715 11.1591 1.63922 11.2728 3.73754V8.29494C11.2728 9.2941 11.0942 9.47527 10.7048 9.47527C9.66633 9.47527 7.1403 5.62206 5.64212 1.21303C5.34856 0.356057 5.05404 0.0098877 4.27118 0.0098877V0.0098877Z" fill="#000212"/>
</svg>
